<svg version="1.2" xmlns="http://www.w3.org/2000/svg" viewBox="0 0 992 1056" width="992" height="1056">
	<style>
		.s0 { fill: #1e1d1d } 
	</style>
	<g id="Background">
		<path id="Path 1" class="s0" d="m478 186.66c-1.93 0.18-8.68 0.82-15 1.42-6.32 0.59-15.55 1.69-20.5 2.45-4.95 0.75-11.48 1.88-14.5 2.52-3.02 0.63-7.07 1.49-9 1.9-1.93 0.41-7.1 1.75-11.5 2.97-4.4 1.23-12.5 3.73-18 5.56-5.5 1.84-14.95 5.45-21 8.04-6.05 2.59-15.27 6.83-20.5 9.43-5.23 2.59-13.32 6.89-18 9.56-4.68 2.66-12.55 7.53-17.5 10.82-4.95 3.28-11.7 8.04-15 10.57-3.3 2.52-11.4 9.16-18 14.75-6.6 5.58-14.74 13.01-18.09 16.5-3.35 3.49-9.21 9.95-13.02 14.35-3.81 4.4-9.42 11.15-12.48 15-3.06 3.85-8.27 11.05-11.59 16-3.32 4.95-7.9 12.04-10.18 15.75-2.28 3.71-7.47 13.39-11.55 21.5-4.07 8.11-9.96 21.5-13.08 29.75-3.12 8.25-6.8 19.05-8.18 24-1.37 4.95-3.35 12.6-4.39 17-1.05 4.4-2.79 13.18-3.87 19.5-1.08 6.32-2.55 16.23-3.27 22-0.8 6.5-1.28 21.18-1.24 38.5 0.04 20.8 0.5 31.21 1.78 40.5 0.96 6.88 2.63 17 3.73 22.5 1.09 5.5 2.91 13.83 4.04 18.5 1.13 4.67 4.55 15.92 7.62 25 3.06 9.08 6.67 18.98 8.02 22 1.35 3.02 4.74 10.23 7.53 16 2.79 5.77 8.44 16.13 12.55 23 4.12 6.88 9.98 16.1 13.02 20.5 3.05 4.4 9.69 13.17 14.76 19.5 5.06 6.33 15.43 17.67 23.05 25.21 7.61 7.54 18.57 17.59 24.34 22.32 5.77 4.74 17.93 13.59 27 19.67 11.11 7.44 22.71 14.09 35.5 20.36 10.45 5.12 23.27 10.88 28.5 12.8 5.23 1.91 14.9 5.13 21.5 7.13 6.6 2.01 18.19 4.97 25.75 6.58 7.56 1.61 20.84 3.83 29.5 4.93 11.67 1.48 21.71 2 38.75 2.01 17.31 0.01 26.71-0.48 38-1.98 8.25-1.1 20.4-3.08 27-4.42 6.6-1.34 14.7-3.19 18-4.12 3.3-0.92 10.5-3.06 16-4.75 5.5-1.69 14.27-4.74 19.5-6.78 5.23-2.04 15.13-6.38 22-9.65 6.87-3.27 17.23-8.68 23-12.02 5.77-3.34 14.33-8.67 19-11.84 4.67-3.17 10.98-7.59 14-9.83 3.02-2.24 9.55-7.46 14.5-11.6 4.94-4.13 12.72-11.12 17.28-15.52 4.56-4.4 8.26-8.45 8.22-9-0.05-0.55-10.98-11.92-24.29-25.27-13.32-13.35-24.66-24.25-25.21-24.22-0.55 0.03-5.05 3.99-10 8.8-4.95 4.82-12.6 11.48-17 14.81-4.4 3.33-12.05 8.79-17 12.11-4.95 3.33-13.73 8.56-19.5 11.61-5.77 3.06-15.79 7.83-22.25 10.61-6.46 2.78-16.59 6.64-22.5 8.59-5.91 1.94-16.6 4.84-23.75 6.43-7.15 1.6-17.05 3.49-22 4.2-5.4 0.78-18.81 1.3-33.5 1.31-15.41 0.01-28.03-0.49-34-1.34-5.23-0.75-12.2-1.94-15.5-2.64-3.3-0.7-10.73-2.49-16.5-3.97-5.77-1.49-15.45-4.52-21.5-6.74-6.05-2.21-16.63-6.83-23.5-10.26-6.88-3.43-14.3-7.24-16.5-8.47-2.2-1.24-8.5-5.23-14-8.88-5.5-3.64-14.27-10.07-19.5-14.28-5.23-4.21-14.45-12.77-20.5-19.03-6.05-6.25-14.37-15.87-18.48-21.37-4.12-5.5-10.78-14.95-14.8-21-4.03-6.05-10.17-16.85-13.64-24-3.47-7.15-7.92-17.05-9.89-22-1.97-4.95-5.19-14.85-7.15-22-1.97-7.15-4.43-17.73-5.47-23.5-1.04-5.77-2.45-15.9-3.12-22.5-0.79-7.74-1.02-19.63-0.66-33.5 0.32-11.96 1.3-26.16 2.21-32 0.9-5.77 3.21-16.57 5.12-24 1.91-7.43 4.61-16.65 5.99-20.5 1.39-3.85 4.47-11.5 6.86-17 2.39-5.5 6.69-14.5 9.57-20 2.87-5.5 7.7-13.82 10.73-18.5 3.03-4.68 9.65-13.68 14.72-20 5.07-6.32 15.24-17.29 22.61-24.37 7.37-7.08 17.99-16.31 23.61-20.5 5.61-4.2 15.96-11.07 23-15.28 7.03-4.21 17.29-9.66 22.79-12.11 5.5-2.45 13.15-5.71 17-7.23 3.85-1.53 11.5-4.07 17-5.65 5.5-1.57 14.05-3.73 19-4.79 4.95-1.07 14.63-2.75 21.5-3.74 8.91-1.28 18.67-1.8 34-1.81 15.79-0.02 24.55 0.46 33 1.77 6.33 0.99 14.88 2.46 19 3.28 4.13 0.81 12.23 2.86 18 4.54 5.77 1.67 12.52 3.72 15 4.55 2.48 0.83 7.2 2.64 10.5 4.03 3.3 1.39 10.05 4.48 15 6.88 4.95 2.39 11.02 5.53 13.5 6.98 2.48 1.45 8.77 5.28 14 8.5 5.23 3.22 14 9.51 19.5 13.97 5.5 4.47 14.27 12.28 19.5 17.37 5.23 5.08 11.3 11.24 13.5 13.68 2.2 2.45 6.04 6.92 8.54 9.94 2.49 3.02 6.83 8.64 9.63 12.49 2.8 3.85 6.95 10.04 9.21 13.75 2.27 3.71 5.85 10.24 7.96 14.5 2.11 4.26 6 12.93 8.64 19.25 2.63 6.32 5.16 12.4 5.61 13.5 0.45 1.1 2.39 7.4 4.31 14 1.93 6.6 4.17 15.15 4.99 19 0.82 3.85 2.07 11.05 2.77 16 0.71 5.02 1.27 18.07 1.26 29.5-0.02 18.48-0.28 21.58-2.61 31.5-1.42 6.05-3.9 13.92-5.51 17.5-1.61 3.58-4.77 9.65-7.01 13.5-2.24 3.85-6.97 10.15-10.51 14-3.53 3.85-9.66 9.14-13.6 11.75-3.95 2.61-9.54 5.83-12.43 7.15-2.89 1.33-7.27 2.95-9.75 3.61-2.48 0.67-8.33 1.27-13 1.34-6.98 0.11-9.3-0.27-13-2.11-2.48-1.24-5.67-3.93-7.11-5.99-1.43-2.06-3.19-5.55-3.91-7.75-0.75-2.31-1.28-8.65-1.27-15 0.01-6.4 1.14-18.94 2.69-30 1.47-10.45 3.88-27.1 5.36-37 2.23-15.01 2.68-21.49 2.71-39 0.03-19.4-0.15-21.53-2.31-28-1.28-3.85-3.76-9.88-5.5-13.4-1.74-3.53-5-8.48-7.24-11-2.25-2.53-6.3-6.08-9-7.89-2.71-1.81-8.52-4.44-12.92-5.84-5.18-1.65-11.34-2.73-17.5-3.06-6.92-0.38-11.4-0.07-16.5 1.14-3.85 0.92-10.15 2.98-14 4.57-3.85 1.6-9.7 4.64-13 6.75-3.3 2.11-9.31 6.96-13.36 10.78-4.05 3.82-9.56 9.99-12.25 13.7-2.69 3.71-5.23 6.76-5.64 6.77-0.41 0.01-1.09-1.68-1.51-3.75-0.42-2.07-2.29-6.92-4.15-10.77-1.86-3.85-5.38-9.25-7.82-12-2.44-2.75-6.87-6.64-9.85-8.64-2.98-2-8.35-4.63-11.92-5.83-4.1-1.38-10.19-2.39-16.5-2.74-8.3-0.45-11.53-0.17-19 1.7-4.95 1.23-11.7 3.45-15 4.93-3.3 1.48-8.48 4.33-11.5 6.33-3.02 2.01-8.89 6.93-13.04 10.95-4.15 4.01-9.44 10.11-11.75 13.55-2.32 3.44-4.55 6.25-4.96 6.25-0.41 0.01-1.06-5.96-1.43-13.25-0.38-7.29-1.18-15.73-1.8-18.75-0.61-3.02-1.32-6.51-1.57-7.75-0.3-1.53-1.17-2.25-2.7-2.25-1.24-0.01-12.15 1.98-24.25 4.41-12.1 2.43-24.25 4.74-27 5.13-2.75 0.39-5.45 1.1-6 1.57-0.65 0.55 0.14 3.77 2.22 9.12 1.77 4.55 3.78 10.97 4.47 14.27 0.78 3.73 1.23 13.93 1.2 27-0.03 14.21-0.61 25.04-1.78 33.5-0.96 6.88-2.58 19.48-3.61 28-1.04 8.52-2.81 22.7-3.95 31.5-1.13 8.8-2.98 22.52-4.12 30.5-1.13 7.98-3.35 19.9-4.93 26.5-1.59 6.6-3.56 13.8-4.39 16-0.82 2.2-1.19 4.35-0.81 4.78 0.39 0.43 13.64 0.76 29.45 0.75l28.75-0.03c0.72-3.49 1.43-9.67 2.04-16 0.61-6.33 2.19-19.6 3.51-29.5 1.32-9.9 3.08-23.62 3.9-30.5 0.82-6.87 2.39-19.25 3.49-27.5 1.09-8.25 2.69-20.4 3.55-27 0.86-6.6 2.72-15.6 4.14-20 1.42-4.4 4.2-11.15 6.18-15 2.3-4.47 6.16-9.57 10.65-14.09 5.07-5.11 8.99-8.01 14.04-10.37 4.78-2.24 9.06-3.44 13.5-3.79 4.38-0.35 8.3 0.01 12 1.08 3.02 0.88 7.19 2.97 9.25 4.64 2.11 1.7 4.95 5.55 6.5 8.78 2.7 5.65 2.75 6.08 2.7 24.25-0.04 15.6-0.63 22.82-3.78 46-2.05 15.13-4.82 35.38-6.16 45-1.34 9.63-3.36 24.48-4.49 33-1.14 8.52-2.54 18.65-3.11 22.5-0.58 3.85-0.68 7.34-0.23 7.74 0.45 0.41 12.97 0.64 27.82 0.5l27-0.24c1.18-8.52 3.12-23.83 5.07-39.5 1.95-15.67 3.96-31.87 4.45-36 0.5-4.12 1.59-12.9 2.43-19.5 0.84-6.6 2.46-19.42 3.61-28.5 1.14-9.07 2.98-20.32 4.08-25 1.1-4.68 3.81-12.32 6.03-17 2.74-5.79 5.82-10.36 9.68-14.33 3.78-3.91 8.11-7.05 13.1-9.5 6.71-3.31 8.24-3.67 15.52-3.67 6.71 0 8.92 0.44 13.05 2.56 2.74 1.41 6.36 4.34 8.04 6.5 1.69 2.17 3.88 6.64 4.88 9.94 1.52 5.05 1.71 8.22 1.23 20-0.31 7.7-1.92 23.23-3.57 34.5-1.65 11.27-4.15 28.26-5.55 37.75-1.53 10.36-2.55 21.64-2.55 28.25 0 6.05 0.69 14.49 1.52 18.75 0.84 4.26 2.75 10.2 4.25 13.19 1.5 2.98 5.43 8.32 8.73 11.85 4.36 4.67 7.91 7.33 13 9.74 3.85 1.83 10.6 4.06 15 4.97 5.3 1.08 12.9 1.63 22.5 1.62 8.55-0.01 18.19-0.66 23.5-1.59 4.95-0.86 11.92-2.28 15.5-3.16 3.58-0.88 11-3.16 16.5-5.06 5.5-1.9 14.27-5.73 19.5-8.51 5.23-2.77 14-8.1 19.5-11.84 5.5-3.73 14.01-10.54 18.9-15.13 4.9-4.58 11.72-11.93 15.15-16.33 3.44-4.4 8.16-11.15 10.5-15 2.34-3.85 5.51-9.48 7.05-12.5 1.53-3.02 4.34-9.77 6.24-15 1.89-5.23 4.42-14 5.62-19.5 1.74-7.97 2.18-13.25 2.17-26 0-9.25-0.7-21.06-1.65-28-0.91-6.6-2.72-17.18-4.04-23.5-1.31-6.32-3.27-14.87-4.35-19-1.08-4.12-3.73-12.45-5.89-18.5-2.16-6.05-5.56-14.94-7.56-19.75-2-4.81-6.63-14.49-10.28-21.5-3.65-7.01-9.13-16.8-12.19-21.75-3.05-4.95-7.59-11.93-10.07-15.5-2.49-3.57-7.01-9.65-10.05-13.5-3.04-3.85-9.4-11.5-14.13-17-4.74-5.5-13.07-14.19-18.52-19.31-5.44-5.13-14.4-12.83-19.9-17.12-5.5-4.3-13.83-10.47-18.5-13.72-4.67-3.24-11.42-7.74-15-9.98-3.58-2.25-13.02-7.46-21-11.59-7.98-4.13-19.9-9.66-26.5-12.28-6.6-2.62-16.73-6.29-22.5-8.15-5.77-1.86-13.88-4.29-18-5.39-4.13-1.11-11.77-2.91-17-4.01-5.23-1.11-12.54-2.45-16.25-2.98-3.71-0.53-14.06-1.64-23-2.47-8.94-0.82-21.88-1.42-28.75-1.34-6.88 0.09-14.07 0.31-16 0.5z"/>
	</g>
</svg>