<svg version="1.2" xmlns="http://www.w3.org/2000/svg" viewBox="0 0 1400 800" width="1400" height="800">
	<style>
		.s0 { fill: #ffffff } 
	</style>
	<g id="Background">
		<path id="Path 1" class="s0" d="m332.24 292.91c-0.8 0.07-3.59 0.34-6.21 0.59-2.61 0.24-6.43 0.7-8.48 1.01-2.05 0.31-4.74 0.78-6 1.04-1.25 0.26-2.92 0.62-3.72 0.79-0.8 0.17-2.94 0.72-4.76 1.23-1.82 0.5-5.17 1.54-7.44 2.3-2.28 0.76-6.19 2.25-8.69 3.32-2.51 1.08-6.32 2.83-8.48 3.9-2.17 1.08-5.52 2.86-7.45 3.96-1.94 1.1-5.19 3.12-7.24 4.48-2.05 1.36-4.84 3.32-6.21 4.37-1.36 1.04-4.71 3.79-7.44 6.1-2.74 2.31-6.1 5.39-7.49 6.83-1.39 1.44-3.81 4.12-5.38 5.94-1.58 1.82-3.9 4.61-5.17 6.2-1.26 1.6-3.42 4.57-4.79 6.62-1.38 2.05-3.27 4.98-4.21 6.52-0.95 1.53-3.1 5.54-4.78 8.89-1.69 3.36-4.12 8.9-5.42 12.31-1.29 3.41-2.81 7.88-3.38 9.93-0.57 2.05-1.39 5.21-1.82 7.03-0.43 1.82-1.15 5.46-1.6 8.07-0.44 2.62-1.05 6.71-1.35 9.1-0.33 2.69-0.53 8.77-0.51 15.93 0.01 8.61 0.2 12.92 0.73 16.76 0.4 2.84 1.09 7.03 1.54 9.31 0.46 2.27 1.21 5.72 1.68 7.65 0.46 1.94 1.88 6.59 3.15 10.34 1.27 3.76 2.76 7.85 3.32 9.11 0.56 1.25 1.96 4.23 3.11 6.62 1.16 2.39 3.5 6.67 5.2 9.51 1.7 2.85 4.12 6.66 5.38 8.48 1.27 1.82 4.01 5.45 6.11 8.07 2.09 2.62 6.38 7.31 9.53 10.43 3.15 3.12 7.69 7.28 10.08 9.24 2.38 1.96 7.41 5.62 11.17 8.13 4.59 3.08 9.39 5.83 14.68 8.43 4.33 2.11 9.63 4.5 11.79 5.29 2.17 0.79 6.17 2.12 8.9 2.95 2.73 0.83 7.52 2.06 10.65 2.73 3.13 0.66 8.62 1.58 12.21 2.03 4.83 0.62 8.98 0.83 16.03 0.84 7.16 0 11.05-0.2 15.72-0.82 3.42-0.46 8.44-1.28 11.17-1.83 2.73-0.56 6.08-1.32 7.45-1.71 1.36-0.38 4.34-1.26 6.62-1.96 2.27-0.7 5.91-1.96 8.07-2.81 2.16-0.84 6.25-2.64 9.1-3.99 2.84-1.35 7.13-3.59 9.51-4.97 2.39-1.39 5.93-3.59 7.87-4.9 1.93-1.31 4.54-3.14 5.79-4.07 1.25-0.92 3.95-3.08 6-4.8 2.04-1.71 5.26-4.6 7.15-6.42 1.88-1.82 3.41-3.49 3.4-3.72-0.02-0.23-4.54-4.93-10.05-10.46-5.51-5.52-10.21-10.03-10.43-10.02-0.23 0.02-2.09 1.65-4.14 3.65-2.05 1.99-5.21 4.74-7.03 6.12-1.82 1.38-4.99 3.64-7.04 5.01-2.04 1.38-5.68 3.54-8.06 4.81-2.39 1.26-6.54 3.24-9.21 4.38-2.67 1.15-6.86 2.75-9.31 3.56-2.44 0.8-6.87 2-9.82 2.66-2.96 0.66-7.06 1.44-9.11 1.74-2.23 0.32-7.78 0.54-13.86 0.54-6.37 0-11.59-0.2-14.06-0.56-2.16-0.31-5.05-0.8-6.42-1.09-1.36-0.29-4.43-1.03-6.82-1.64-2.39-0.62-6.39-1.87-8.9-2.79-2.5-0.92-6.88-2.83-9.72-4.24-2.84-1.42-5.92-3-6.83-3.51-0.91-0.51-3.51-2.16-5.79-3.67-2.27-1.51-5.9-4.17-8.07-5.91-2.16-1.74-5.97-5.28-8.48-7.87-2.5-2.59-5.94-6.57-7.64-8.85-1.71-2.27-4.46-6.18-6.13-8.68-1.66-2.51-4.2-6.97-5.64-9.93-1.44-2.96-3.28-7.06-4.09-9.1-0.82-2.05-2.15-6.15-2.96-9.11-0.81-2.95-1.83-7.33-2.26-9.72-0.43-2.39-1.02-6.58-1.29-9.31-0.33-3.2-0.43-8.12-0.28-13.86 0.13-4.95 0.54-10.82 0.92-13.24 0.37-2.39 1.32-6.85 2.11-9.93 0.8-3.07 1.91-6.89 2.48-8.48 0.58-1.59 1.85-4.76 2.84-7.03 0.99-2.28 2.77-6 3.96-8.28 1.19-2.27 3.19-5.72 4.44-7.65 1.25-1.93 3.99-5.66 6.09-8.27 2.1-2.62 6.31-7.16 9.36-10.09 3.04-2.93 7.44-6.74 9.76-8.48 2.33-1.74 6.61-4.58 9.52-6.32 2.91-1.74 7.15-4 9.43-5.01 2.27-1.01 5.44-2.36 7.03-2.99 1.59-0.64 4.76-1.69 7.03-2.34 2.28-0.65 5.82-1.54 7.87-1.98 2.04-0.44 6.05-1.14 8.89-1.55 3.69-0.53 7.73-0.74 14.07-0.75 6.53 0 10.16 0.19 13.65 0.74 2.62 0.4 6.15 1.01 7.86 1.35 1.71 0.34 5.06 1.18 7.45 1.88 2.39 0.69 5.18 1.54 6.2 1.88 1.03 0.35 2.98 1.1 4.35 1.67 1.36 0.57 4.16 1.85 6.2 2.84 2.05 0.99 4.57 2.3 5.59 2.9 1.02 0.6 3.63 2.18 5.79 3.51 2.16 1.33 5.79 3.94 8.07 5.78 2.27 1.85 5.91 5.08 8.07 7.19 2.16 2.1 4.67 4.65 5.58 5.66 0.91 1.01 2.5 2.86 3.53 4.11 1.04 1.25 2.83 3.57 3.99 5.17 1.16 1.59 2.87 4.15 3.81 5.69 0.94 1.53 2.42 4.23 3.29 5.99 0.88 1.77 2.48 5.35 3.58 7.97 1.09 2.62 2.13 5.13 2.32 5.58 0.18 0.46 0.99 3.07 1.78 5.8 0.8 2.73 1.73 6.26 2.07 7.86 0.34 1.59 0.85 4.57 1.14 6.62 0.3 2.07 0.53 7.47 0.52 12.2-0.01 7.65-0.11 8.93-1.07 13.03-0.59 2.51-1.62 5.77-2.29 7.24-0.66 1.48-1.97 4-2.9 5.59-0.92 1.59-2.88 4.2-4.34 5.79-1.47 1.6-4 3.78-5.63 4.86-1.64 1.08-3.95 2.42-5.14 2.96-1.2 0.55-3.01 1.22-4.04 1.5-1.02 0.27-3.44 0.52-5.38 0.55-2.88 0.04-3.85-0.11-5.37-0.87-1.03-0.51-2.35-1.63-2.95-2.48-0.59-0.86-1.32-2.3-1.61-3.21-0.31-0.95-0.53-3.58-0.53-6.2 0.01-2.65 0.47-7.84 1.12-12.42 0.6-4.32 1.6-11.21 2.21-15.3 0.92-6.21 1.11-8.9 1.12-16.14 0.01-8.03-0.06-8.91-0.95-11.58-0.53-1.6-1.56-4.09-2.28-5.55-0.72-1.46-2.07-3.5-2.99-4.55-0.93-1.05-2.61-2.51-3.73-3.26-1.12-0.75-3.52-1.84-5.34-2.42-2.15-0.68-4.7-1.13-7.24-1.27-2.87-0.15-4.72-0.02-6.83 0.48-1.59 0.38-4.2 1.23-5.79 1.89-1.59 0.66-4.01 1.92-5.38 2.79-1.37 0.87-3.85 2.88-5.53 4.46-1.67 1.58-3.95 4.13-5.07 5.67-1.11 1.53-2.16 2.79-2.33 2.8-0.17 0-0.45-0.7-0.62-1.55-0.18-0.86-0.95-2.87-1.72-4.46-0.77-1.59-2.23-3.82-3.24-4.96-1.01-1.14-2.84-2.75-4.07-3.58-1.24-0.83-3.45-1.91-4.93-2.41-1.7-0.57-4.22-0.99-6.83-1.13-3.43-0.19-4.77-0.07-7.86 0.7-2.05 0.51-4.84 1.43-6.21 2.04-1.36 0.61-3.5 1.79-4.75 2.62-1.26 0.83-3.68 2.87-5.4 4.53-1.72 1.66-3.9 4.18-4.86 5.61-0.96 1.42-1.88 2.58-2.05 2.58-0.17 0-0.44-2.46-0.59-5.48-0.16-3.02-0.49-6.51-0.75-7.76-0.25-1.25-0.54-2.69-0.65-3.2q-0.18-0.94-1.12-0.94c-0.51 0-5.02 0.82-10.03 1.83-5 1.01-10.03 1.96-11.17 2.12-1.14 0.16-2.25 0.46-2.48 0.65-0.27 0.23 0.06 1.56 0.92 3.78 0.73 1.88 1.56 4.53 1.85 5.9 0.32 1.54 0.5 5.76 0.49 11.17-0.01 5.88-0.25 10.36-0.73 13.86-0.4 2.84-1.07 8.06-1.5 11.58-0.43 3.53-1.16 9.39-1.63 13.04-0.47 3.64-1.24 9.31-1.7 12.61-0.47 3.3-1.39 8.24-2.05 10.97-0.65 2.73-1.47 5.71-1.81 6.62-0.34 0.91-0.49 1.8-0.33 1.97 0.15 0.18 5.64 0.32 12.18 0.31l11.89-0.01c0.3-1.44 0.59-4 0.85-6.62 0.25-2.61 0.9-8.11 1.45-12.2 0.55-4.1 1.27-9.78 1.61-12.62 0.34-2.84 0.99-7.96 1.44-11.38 0.46-3.41 1.12-8.44 1.47-11.17 0.36-2.73 1.13-6.45 1.72-8.27 0.58-1.82 1.74-4.62 2.56-6.21 0.95-1.85 2.54-3.96 4.4-5.83 2.1-2.11 3.72-3.31 5.81-4.29 1.98-0.93 3.75-1.42 5.58-1.57 1.82-0.14 3.44 0.01 4.97 0.45 1.25 0.36 2.97 1.23 3.83 1.92 0.87 0.7 2.05 2.29 2.69 3.63 1.11 2.34 1.13 2.52 1.11 10.04-0.01 6.45-0.26 9.44-1.56 19.03-0.85 6.25-2 14.63-2.55 18.61-0.55 3.99-1.39 10.13-1.86 13.66-0.47 3.52-1.05 7.71-1.29 9.31-0.23 1.59-0.28 3.03-0.09 3.2 0.19 0.17 5.37 0.26 11.51 0.21l11.17-0.1c0.49-3.53 1.29-9.86 2.1-16.35 0.81-6.48 1.64-13.18 1.84-14.89 0.21-1.71 0.66-5.34 1.01-8.07 0.34-2.73 1.01-8.03 1.49-11.79 0.47-3.75 1.23-8.41 1.69-10.34 0.45-1.94 1.57-5.1 2.49-7.04 1.14-2.39 2.41-4.28 4.01-5.93q2.33-2.41 5.42-3.93c2.77-1.36 3.41-1.51 6.42-1.51 2.77 0 3.69 0.18 5.4 1.06 1.13 0.58 2.63 1.79 3.32 2.69 0.7 0.89 1.61 2.74 2.02 4.11 0.63 2.09 0.71 3.4 0.51 8.27-0.13 3.19-0.79 9.61-1.48 14.28-0.68 4.66-1.71 11.69-2.29 15.61-0.64 4.29-1.06 8.96-1.06 11.69 0 2.5 0.29 6 0.63 7.76 0.35 1.76 1.14 4.22 1.76 5.45 0.62 1.24 2.25 3.45 3.61 4.91 1.81 1.93 3.27 3.03 5.38 4.03 1.59 0.76 4.39 1.68 6.21 2.05 2.19 0.45 5.33 0.68 9.3 0.67 3.54 0 7.53-0.27 9.73-0.65 2.05-0.36 4.93-0.95 6.41-1.31 1.48-0.36 4.55-1.31 6.83-2.09 2.27-0.79 5.9-2.37 8.06-3.52 2.17-1.15 5.8-3.36 8.07-4.9 2.28-1.55 5.8-4.37 7.82-6.26 2.03-1.9 4.85-4.94 6.27-6.76 1.42-1.82 3.38-4.61 4.34-6.2 0.97-1.6 2.28-3.92 2.92-5.18 0.63-1.25 1.8-4.04 2.58-6.2 0.78-2.16 1.83-5.79 2.33-8.07 0.72-3.3 0.9-5.48 0.9-10.76-0.01-3.82-0.3-8.71-0.69-11.58-0.37-2.73-1.12-7.11-1.67-9.72-0.54-2.62-1.35-6.16-1.8-7.86-0.45-1.71-1.54-5.16-2.44-7.66-0.89-2.5-2.3-6.18-3.12-8.17-0.83-1.99-2.75-5.99-4.26-8.89-1.51-2.91-3.78-6.96-5.04-9-1.26-2.05-3.14-4.94-4.17-6.42-1.03-1.48-2.9-3.99-4.15-5.58-1.26-1.59-3.89-4.76-5.85-7.03-1.96-2.28-5.41-5.88-7.66-8-2.25-2.11-5.96-5.3-8.24-7.08-2.27-1.78-5.72-4.33-7.65-5.67-1.93-1.34-4.73-3.2-6.21-4.13-1.47-0.93-5.38-3.09-8.68-4.8-3.3-1.71-8.24-3.99-10.97-5.08-2.73-1.08-6.92-2.6-9.31-3.37-2.39-0.77-5.74-1.77-7.44-2.23-1.71-0.46-4.88-1.2-7.04-1.66-2.16-0.46-5.18-1.01-6.72-1.23-1.54-0.22-5.82-0.68-9.52-1.02-3.69-0.34-9.05-0.59-11.89-0.56-2.84 0.04-5.82 0.13-6.62 0.21z"/>
		<path id="ajales" class="s0" aria-label="ajales"  d="m529.1 482.4q-8.1 0-15-1.9-6.7-2.2-12-6.2-5.2-4.1-8.3-10.3-2.9-6.2-2.9-14.4 0-12.1 6.7-19.8 6.7-7.6 20.5-11.2 14.1-3.8 35.9-3.8h5q0-15.3-2.9-23.7-2.8-8.6-8.3-12-5.3-3.5-12.5-3.5-8.8 0-15.5 4.3-6.7 4-9.3 16.7h-12.2q0-6.2 0.7-12.2 1-6 5.3-10.8 4.3-4.7 14.3-6.4 10.3-1.9 21.5-1.9 10.3 0 18.7 2.6 8.6 2.6 14.5 8.4 6.3 5.7 9.6 15.5 3.3 9.6 3.3 23.7v64.5h-16.9l-8.4-10.8h-1.2q-3.3 4.8-11 9.1-7.6 4.1-19.6 4.1zm8.6-11.5q8.4 0 13.4-4.8 5.3-5 7.9-10.2v-30.9h-5q-17.5 0-26.1 6.5-8.6 6.2-8.6 18.1 0 10.8 5.3 16.1 5.2 5.2 13.1 5.2zm60.1 54.5v-5.5q7.7-0.7 12.5-5.7 4.8-5 6.9-14.8 2.4-9.8 2.4-25.4v-76.2q0-10.8-3.1-17.2-2.9-6.7-13.6-6.7h-3.4v-6.2h25.8q8.4 0 12.9 2.6 4.8 2.6 6.7 9.1 1.9 6.4 1.9 18.4v76.2q0 18.9-4.5 30.4-4.3 11.2-15.1 16.2-10.5 4.8-29.4 4.8zm34.7-171.1q-7.6 0-11.9-5-4.1-5.3-4.1-12.2 0-5.5 3.3-8.9 3.6-3.3 8.9-3.3 7.6 0 11.9 5.2 4.3 5.1 4.3 11.8 0 5.7-3.6 9-3.5 3.4-8.8 3.4zm75.6 128.1q-8.1 0-15-1.9-6.7-2.2-12-6.2-5.2-4.1-8.3-10.3-2.9-6.2-2.9-14.4 0-12.1 6.7-19.8 6.7-7.6 20.5-11.2 14.1-3.8 35.9-3.8h5q0-15.3-2.9-23.7-2.8-8.6-8.3-12-5.3-3.5-12.5-3.5-8.8 0-15.5 4.3-6.7 4-9.3 16.7h-12.2q0-6.2 0.7-12.2 1-6 5.3-10.8 4.3-4.7 14.3-6.4 10.3-1.9 21.5-1.9 10.3 0 18.7 2.6 8.6 2.6 14.5 8.4 6.3 5.7 9.6 15.5 3.3 9.6 3.3 23.7v64.5h-16.9l-8.4-10.8h-1.2q-3.3 4.8-11 9.1-7.6 4.1-19.6 4.1zm8.6-11.5q8.4 0 13.4-4.8 5.3-5 7.9-10.2v-30.9h-5q-17.5 0-26.1 6.5-8.6 6.2-8.6 18.1 0 10.8 5.3 16.1 5.2 5.2 13.1 5.2zm106 9.1h-27.2v-127.6q0-10.8-3.1-17.2-2.9-6.7-13.6-6.7h-3.4v-6.2h25.8q8.4 0 12.9 2.6 4.8 2.6 6.7 9.1 1.9 6.4 1.9 18.4zm78.9 2.4q-16.7 0-28.7-7.7-11.7-7.9-18.1-21-6.2-13.4-6.2-29.9 0-17.9 6.4-31.1 6.5-13.1 17.9-20.3 11.5-7.1 26.3-7.1 15.6 0 26.8 5.9 11.5 6 17.7 17.2 6.2 11.3 6.2 26.6l-0.7 12.9h-72.2q0 22 7.6 33.2 7.9 11 21.1 11 12.2 0 19.8-5.3 7.9-5.5 14.1-14.3l6.2 4.8q-4 6.9-10 12.6-6 5.5-14.3 9.1-8.4 3.4-19.9 3.4zm-24.6-64.8h44.5q0-22.5-6-32.3-5.8-9.8-16.3-9.8-5.9 0-11 4.6-5 4.5-8.1 13.8-3.1 9.4-3.1 23.7zm135.7 64.8q-14.5 0-23.9-2.7-9.3-2.6-14.1-7.1-4.3-4.1-5-11-0.7-7-0.7-16h6.9q1.9 11.7 9.6 19.1 7.6 7.4 22.5 7.4 13.3 0 19.1-4.6 5.7-4.7 5.7-11.9 0-6.9-6-11.5-5.7-4.5-15.5-8.6l-13.1-5.7q-14.1-5.8-22-13.4-7.9-7.9-7.9-19.6 0-15.3 12.2-23.4 12.2-8.1 30.8-8.1 14.3 0 23.4 2.6 9.3 2.6 13.9 7.2 4.5 4 5.2 10.9 0.8 7 0.8 16.1h-7q-1.9-11.8-9.5-19.2-7.7-7.4-22-7.4-11.3 0-16.5 4.8-5.3 4.6-5.3 11.7 0 6.2 4.6 10.8 4.7 4.3 13.1 7.9l14.4 5.9q16 6.7 24.1 14.4 8.4 7.4 8.4 19.8 0 15.3-13.2 23.4-13.1 8.2-33 8.2z"/>
	</g>
</svg>